<?xml version="1.0" encoding="UTF-8"?>
<svg version="1.1" xmlns="http://www.w3.org/2000/svg" width="6258" height="250">
<path d="M0 0 C83.16 0 166.32 0 252 0 C252 16.17 252 32.34 252 49 C185.67 49 119.34 49 51 49 C51 65.17 51 81.34 51 98 C117.33 98 183.66 98 252 98 C252 115.16 252 132.32 252 150 C185.67 150 119.34 150 51 150 C51 166.17 51 182.34 51 199 C117.33 199 183.66 199 252 199 C252 215.83 252 232.66 252 250 C168.84 250 85.68 250 0 250 C0 167.5 0 85 0 0 Z " fill="#B54997" transform="translate(5137,0)"/>
<path d="M0 0 C9.56993107 4.29576352 16.11929656 11.80457304 21 21 C24.49849652 19.54687556 26.26188561 17.73686446 28.60644531 14.79345703 C37.70652693 4.06974336 45.53098546 -2.52030398 59.88218784 -3.79236889 C84.08938292 -4.93643628 104.60797002 -2.17872163 123.20850945 14.41119194 C124.21084804 15.34793042 125.21031421 16.28775099 126.20703125 17.23046875 C126.72027427 17.70808316 127.23351729 18.18569758 127.76231313 18.67778516 C147.10266257 36.93820518 151.52287557 56.68514667 152.43875122 82.66973877 C152.89279804 102.05937681 152.26740122 121.42982322 151.38527954 140.79782462 C150.85154628 152.72736184 150.59946454 164.65843251 150.36520946 176.59700668 C149.87876586 201.08099203 149.02015226 225.53204032 148 250 C131.17 250 114.34 250 97 250 C97 183.67 97 117.34 97 49 C80.83 49 64.66 49 48 49 C48 115.33 48 181.66 48 250 C30.84 250 13.68 250 -4 250 C-4 183.67 -4 117.34 -4 49 C-20.17 49 -36.34 49 -53 49 C-53 115.33 -53 181.66 -53 250 C-69.83 250 -86.66 250 -104 250 C-105.06971837 224.34321639 -105.93141288 198.70501241 -106.43517208 173.03143215 C-106.67551658 161.10488999 -107.0028944 149.19352386 -107.5456543 137.27661133 C-111.48030605 49.09475469 -111.48030605 49.09475469 -89.97432131 24.90347594 C-87.48275403 22.23845946 -84.87017971 19.7220831 -82.19921875 17.23828125 C-81.45218347 16.5324604 -81.45218347 16.5324604 -80.69005656 15.81238055 C-59.10526628 -4.33603103 -27.99222106 -9.4061217 0 0 Z " fill="#2F4AC1" transform="translate(1129,0)"/>
<path d="M0 0 C6.16784725 0.1617274 12.30139469 0.08700777 18.46727729 -0.11891222 C82.64616457 -2.20877258 82.64616457 -2.20877258 107.32626033 20.30449569 C109.99963006 22.83388973 112.56810996 25.45489937 115.11229682 28.11350965 C115.5995113 28.61669375 116.08672579 29.11987785 116.58870435 29.63830996 C131.04446693 44.69735953 140.44019603 61.18939366 140.04708076 82.54116392 C138.56414647 103.0906213 127.37448185 118.11287093 113.58104682 132.37132215 C113.05225441 132.92495986 112.52346199 133.47859757 111.97864556 134.04901218 C93.99363064 152.71045772 77.03825481 160.26806928 51.12455916 160.75860739 C38.44899462 160.8638908 25.83685897 160.34018153 13.19185442 159.50002187 C4.42993389 158.92838958 -4.33461187 158.66322222 -13.11069059 158.41484618 C-31.08409459 157.89973648 -49.0057507 156.98845714 -66.95410943 155.8986659 C-66.95410943 172.0686659 -66.95410943 188.2386659 -66.95410943 204.8986659 C-0.62410943 204.8986659 65.70589057 204.8986659 134.04589057 204.8986659 C134.04589057 221.7286659 134.04589057 238.5586659 134.04589057 255.8986659 C50.88589057 255.8986659 -32.27410943 255.8986659 -117.95410943 255.8986659 C-117.95410943 153.8986659 -117.95410943 153.8986659 -97.86817193 122.7189784 C-66.49257911 97.66498651 -35.66627243 97.73589522 2.89992094 100.29723811 C11.66182724 100.86911239 20.42639482 101.13410964 29.20247173 101.38248563 C47.17587573 101.89759533 65.09753184 102.80887467 83.04589057 103.8986659 C83.04589057 87.7286659 83.04589057 71.5586659 83.04589057 54.8986659 C16.71589057 54.8986659 -49.61410943 54.8986659 -117.95410943 54.8986659 C-92.94413053 4.8787081 -50.63530604 -1.4961917 0 0 Z " fill="#C14493" transform="translate(5788.954109430313,-5.898665904998779)"/>
<path d="M0 0 C6.15659952 0.17779572 12.2777874 0.11347904 18.43308645 -0.0846265 C52.27806526 -1.13862131 88.95310948 -1.2354273 115.1557427 23.38265866 C135.42592966 43.03195102 137.79513018 68.32473748 138.41588598 95.32749814 C138.67100775 112.5162891 138.0688692 129.6723814 137.28716248 146.8406412 C136.75327232 158.77017072 136.50130095 170.70124959 136.26704592 182.63982159 C135.78060231 207.12380694 134.92198872 231.57485523 133.90183645 256.04281491 C117.07183645 256.04281491 100.24183645 256.04281491 82.90183645 256.04281491 C82.90183645 223.04281491 82.90183645 190.04281491 82.90183645 156.04281491 C33.40183645 156.04281491 -16.09816355 156.04281491 -67.09816355 156.04281491 C-67.09816355 189.04281491 -67.09816355 222.04281491 -67.09816355 256.04281491 C-83.92816355 256.04281491 -100.75816355 256.04281491 -118.09816355 256.04281491 C-119.16788191 230.3860313 -120.02957643 204.74782732 -120.53333563 179.07424706 C-120.77368021 167.14770043 -121.10121551 155.23634799 -121.64381784 143.31942624 C-125.67297457 52.77694294 -125.67297457 52.77694294 -103.71165872 27.81989515 C-76.49072229 -1.34795396 -37.19664999 -1.1971575 0 0 Z M-67.09816355 55.04281491 C-67.09816355 71.21281491 -67.09816355 87.38281491 -67.09816355 104.04281491 C-17.59816355 104.04281491 31.90183645 104.04281491 82.90183645 104.04281491 C82.90183645 87.87281491 82.90183645 71.70281491 82.90183645 55.04281491 C33.40183645 55.04281491 -16.09816355 55.04281491 -67.09816355 55.04281491 Z " fill="#3C46C1" transform="translate(1485.0981635451317,-6.042814910411835)"/>
<path d="M0 0 C49.2834375 -1.4540625 49.2834375 -1.4540625 99.5625 -2.9375 C114.97432983 -3.57933228 114.97432983 -3.57933228 130.69750977 -4.23413086 C138.99480013 -4.43599936 147.26965374 -4.61122482 155.56640625 -4.58984375 C156.64100491 -4.58722928 157.71560357 -4.5846148 158.82276583 -4.5819211 C186.225779 -4.40036876 210.05582986 -2.86670964 230.27910572 17.30448109 C231.77952451 18.86288262 233.25130101 20.44244729 234.7109375 22.0390625 C235.17700826 22.5448418 235.64307902 23.05062109 236.12327313 23.57172704 C249.37129054 38.16720102 258.5924865 56.66045583 257.95171738 76.79326248 C256.21158893 97.45201378 245.37976959 111.99858851 231.57645798 126.57113266 C230.02713348 128.22110388 228.51740974 129.90099105 227.01004028 131.58926392 C215.07297072 144.71347141 204.18289515 150.818888 186.23416138 151.72314072 C175.47452412 152.05264367 164.73833057 151.68669599 154 151 C154.50506577 151.50414397 155.01013153 152.00828794 155.53050232 152.52770901 C167.80080368 164.77595805 180.06835988 177.02694975 192.33283997 189.28102779 C198.26383332 195.20685753 204.19576353 201.13174379 210.12988281 207.05444336 C215.30004293 212.21465865 220.46846258 217.37660964 225.63477039 222.5406819 C228.37216326 225.27676731 231.11043956 228.0119556 233.85079956 230.7450695 C236.42690404 233.31441693 239.00068554 235.88606793 241.57265854 238.45955086 C242.97369006 239.86017348 244.37721447 241.25830107 245.78079224 242.65637207 C246.60537933 243.48233383 247.42996643 244.30829559 248.27954102 245.1592865 C249.36356956 246.24193236 249.36356956 246.24193236 250.46949768 247.34644985 C252 249 252 249 252 250 C234.72077962 253.50465777 212.78802015 257.03792935 196.6681366 248.16629791 C188.53987702 242.5383702 181.72783916 235.60173843 175.0234375 228.37890625 C174.51675443 227.8373022 174.01007135 227.29569816 173.48803425 226.73768187 C165.53937868 218.22273847 157.93662623 209.42037823 150.375 200.5625 C142.31922642 191.13697387 134.16715664 181.82337857 125.7109375 172.75390625 C125.20960391 172.21172219 124.70827032 171.66953813 124.1917448 171.11092424 C111.38186201 157.32258055 99.96223323 148.20940631 80.3291626 147.17086792 C70.51217882 147.47732292 60.75348022 148.8438388 51 150 C51 183 51 216 51 250 C34.17 250 17.34 250 0 250 C0 167.5 0 85 0 0 Z M51 49 C51 65.17 51 81.34 51 98 C100.5 98 150 98 201 98 C201 81.83 201 65.66 201 49 C151.5 49 102 49 51 49 Z " fill="#6850B4" transform="translate(2396,0)"/>
<path d="M0 0 C49.2834375 -1.4540625 49.2834375 -1.4540625 99.5625 -2.9375 C114.97432983 -3.57933228 114.97432983 -3.57933228 130.69750977 -4.23413086 C208.22915365 -6.19559654 208.22915365 -6.19559654 231.8040905 15.92873573 C253.68431161 37.60601401 258.44475749 66.18216331 258.59153229 95.93074018 C258.57628043 102.6921505 258.37131406 109.44608221 258.15589947 116.20355147 C257.98635305 122.17905814 258.06409904 128.11602227 258.27832031 134.08935547 C259.44082951 167.56047417 258.78673156 202.32422961 235.14426684 228.54953551 C215.32915858 249.63650994 191.66932972 253.73080793 163.65225953 254.6270594 C141.8783249 255.13064067 120.20396383 254.01896202 98.4375 253.0625 C65.953125 252.051875 33.46875 251.04125 0 250 C0 167.5 0 85 0 0 Z M51 49 C51 98.5 51 148 51 199 C100.5 199 150 199 201 199 C201 149.5 201 100 201 49 C151.5 49 102 49 51 49 Z " fill="#7653AE" transform="translate(2738,0)"/>
<path d="M0 0 C6.17348367 0.15404112 12.31316981 0.07365929 18.48437154 -0.13591015 C51.49441307 -1.22162653 87.83428161 -1.69136411 113.87988555 21.7410301 C134.32083327 40.96088627 137.68460095 64.75567621 138.55524153 91.78731149 C138.97647248 110.08332 138.33534983 128.3493618 137.50324267 146.62456244 C136.96935193 158.554092 136.71738096 170.48517096 136.48312593 182.42374301 C135.99668232 206.90772836 135.13806873 231.35877665 134.11791646 255.82673633 C117.28791646 255.82673633 100.45791646 255.82673633 83.11791646 255.82673633 C83.11791646 222.82673633 83.11791646 189.82673633 83.11791646 155.82673633 C33.61791646 155.82673633 -15.88208354 155.82673633 -66.88208354 155.82673633 C-66.88208354 188.82673633 -66.88208354 221.82673633 -66.88208354 255.82673633 C-82.72208354 255.82673633 -98.56208354 255.82673633 -114.88208354 255.82673633 C-115.8827406 229.72708086 -116.68982616 203.64336934 -117.1618191 177.52927768 C-117.38698808 165.3986655 -117.69402627 153.28111207 -118.20141947 141.15876758 C-121.99908925 48.30572651 -121.99908925 48.30572651 -100.36300814 24.27009761 C-73.65180706 -2.14969354 -35.04136152 -0.98748316 0 0 Z M-66.88208354 54.82673633 C-66.88208354 70.99673633 -66.88208354 87.16673633 -66.88208354 103.82673633 C-17.38208354 103.82673633 32.11791646 103.82673633 83.11791646 103.82673633 C83.11791646 87.65673633 83.11791646 71.48673633 83.11791646 54.82673633 C33.61791646 54.82673633 -15.88208354 54.82673633 -66.88208354 54.82673633 Z " fill="#124FC2" transform="translate(114.8820835351944,-5.826736330986023)"/>
<path d="M0 0 C6.15658453 0.17762123 12.27780063 0.11363292 18.43308347 -0.084701 C81.710348 -2.0764794 81.710348 -2.0764794 105.77051634 19.9733339 C116.09927439 29.77858873 126.29687527 40.99042122 133.90183347 53.0427404 C133.90183347 53.7027404 133.90183347 54.3627404 133.90183347 55.0427404 C67.57183347 55.0427404 1.24183347 55.0427404 -67.09816653 55.0427404 C-67.09816653 71.2127404 -67.09816653 87.3827404 -67.09816653 104.0427404 C-62.78576906 103.78089958 -58.4733716 103.51905876 -54.03029543 103.24928337 C-39.56828627 102.41014586 -25.10511421 101.86194307 -10.62490946 101.45213181 C-1.86509876 101.19745645 6.87098585 100.85178465 15.61570066 100.27076775 C78.29422191 96.19146082 78.29422191 96.19146082 101.57978529 116.01436907 C105.72449785 119.68343498 109.6086389 123.57528036 113.42917722 127.57789665 C113.95200521 128.11886781 114.47483319 128.65983897 115.01350445 129.2172032 C128.99504718 143.79279443 139.63212422 159.6844007 140.08933347 180.6052404 C139.56597783 202.14016648 128.27372258 217.9735749 113.82761472 232.81227165 C113.30880106 233.35136965 112.78998739 233.89046764 112.2554521 234.44590193 C91.26328342 256.06368158 70.42740466 262.16624957 40.76229501 262.762707 C32.35091311 262.86618302 23.95965647 262.63405969 15.55422568 262.34261775 C9.58998165 262.15738951 3.66539834 262.22412105 -2.29738528 262.430924 C-34.20084682 263.51171821 -63.75850726 264.23540462 -88.41118532 241.51575333 C-99.22446165 231.21724105 -109.92662945 219.58251475 -118.09816653 207.0427404 C-118.09816653 206.3827404 -118.09816653 205.7227404 -118.09816653 205.0427404 C-51.76816653 205.0427404 14.56183347 205.0427404 82.90183347 205.0427404 C82.90183347 188.8727404 82.90183347 172.7027404 82.90183347 156.0427404 C78.58943601 156.30458122 74.27703855 156.56642205 69.83396238 156.83619744 C55.37195322 157.67533495 40.90878116 158.22353774 26.42857641 158.633349 C17.66876569 158.88802436 8.93268113 159.23369654 0.18796629 159.81471306 C-62.48827309 163.89384695 -62.48827309 163.89384695 -85.78098351 144.07597691 C-89.9266389 140.40793448 -93.81148888 136.51679929 -97.63332278 132.51539665 C-98.15640505 131.97467978 -98.67948732 131.43396291 -99.21842057 130.87686068 C-113.26864734 116.24526591 -123.77358102 100.36795844 -124.16066653 79.3552404 C-123.58040085 58.47982964 -113.26473146 42.82900254 -99.15676028 28.26539665 C-98.41603714 27.4917446 -98.41603714 27.4917446 -97.66034991 26.70246321 C-70.17824488 -1.71392805 -37.41107457 -1.20511736 0 0 Z " fill="#8952A7" transform="translate(3542.098166525364,-6.0427404046058655)"/>
<path d="M0 0 C6.15659495 0.17773431 12.27778949 0.11351391 18.43308353 -0.08465278 C51.67800828 -1.12294577 85.97095757 -1.5387495 111.94519901 22.17241967 C133.00803238 42.25326856 139.51853686 66.01632382 140.39237309 94.51383126 C140.58536614 103.76607547 140.35258434 112.99903791 140.05770779 122.2463429 C139.88822026 128.22184472 139.96587144 134.15881618 140.18015385 140.13214409 C141.35308068 173.81347168 140.84863372 206.66208549 116.91370487 232.81190026 C96.27688869 254.45790317 72.65747179 261.83575813 43.23664188 262.72692788 C33.99990639 262.91426923 24.78491839 262.66259541 15.55422592 262.34271431 C9.58997061 262.15737264 3.66541052 262.22433705 -2.29738522 262.43097222 C-35.95527287 263.56264548 -68.73753544 262.94754659 -94.86583614 239.05321801 C-116.5652291 218.38439382 -123.85648804 194.77008334 -124.70442867 165.29971993 C-124.87882359 156.0509269 -124.61655301 146.82422076 -124.28500843 137.58209729 C-124.09138292 131.60624517 -124.14493397 125.66792176 -124.33547115 119.69269097 C-125.34701379 86.96512991 -125.27811358 53.71558659 -102.0819006 28.13361657 C-74.33459815 -1.17372837 -37.94103272 -1.22149306 0 0 Z M-67.09816647 55.04278862 C-67.09816647 104.54278862 -67.09816647 154.04278862 -67.09816647 205.04278862 C-17.59816647 205.04278862 31.90183353 205.04278862 82.90183353 205.04278862 C82.90183353 155.54278862 82.90183353 106.04278862 82.90183353 55.04278862 C33.40183353 55.04278862 -16.09816647 55.04278862 -67.09816647 55.04278862 Z " fill="#584BBC" transform="translate(2171.0981664657593,-6.042788624763489)"/>
<path d="M0 0 C6.21477266 0.19483461 12.40275787 0.17389999 18.61845851 0.032269 C83.60427623 -1.4064108 83.60427623 -1.4064108 105.73540187 17.94932222 C119.08134938 30.81241133 129.51532982 46.02486949 129.98420787 65.04027224 C129.94508547 69.46548463 129.57541551 73.83400243 129.14580226 78.23569918 C128.90488156 81.24048802 128.87503364 84.2337667 128.8444221 87.24691439 C128.53858204 111.72751916 128.53858204 111.72751916 119.98384547 121.05253267 C117.00800202 123.82312318 113.97143348 126.1808538 110.59355617 128.4463315 C111.94932794 131.54739308 112.62914174 132.47171322 115.51396632 134.52933931 C122.19035545 139.29864852 125.680264 144.18021965 127.3191421 152.31156588 C128.36092071 159.41650704 128.69265893 166.48134291 128.82646632 173.65482759 C128.89170301 176.65611694 129.08076958 179.60270662 129.40068507 182.58744478 C131.39704825 201.70229862 126.61617742 216.19727446 114.57820582 231.31324434 C97.85717794 250.82250044 80.92451015 258.73132853 55.89988792 260.75308371 C42.54521824 261.66693722 29.19423635 261.48685771 15.82216394 261.17000532 C9.81296092 261.04804429 3.83888187 261.15762015 -2.16620946 261.39506197 C-34.12783899 262.63076472 -64.00651002 263.75132779 -88.75606084 240.95594263 C-99.56966139 230.65769259 -110.25865065 219.001571 -118.40644383 206.4463315 C-118.40644383 205.7863315 -118.40644383 205.1263315 -118.40644383 204.4463315 C-52.07644383 204.4463315 14.25355617 204.4463315 82.59355617 204.4463315 C82.59355617 188.2763315 82.59355617 172.1063315 82.59355617 155.4463315 C32.76355617 155.4463315 -17.06644383 155.4463315 -68.40644383 155.4463315 C-68.40644383 138.2863315 -68.40644383 121.1263315 -68.40644383 103.4463315 C-18.57644383 103.4463315 31.25355617 103.4463315 82.59355617 103.4463315 C82.59355617 87.2763315 82.59355617 71.1063315 82.59355617 54.4463315 C16.26355617 54.4463315 -50.06644383 54.4463315 -118.40644383 54.4463315 C-93.22527564 4.08399511 -50.8982795 -1.7441408 0 0 Z " fill="#C84190" transform="translate(6132.406443834305,-5.44633150100708)"/>
<path d="M0 0 C49.2834375 -1.4540625 49.2834375 -1.4540625 99.5625 -2.9375 C114.97432983 -3.57933228 114.97432983 -3.57933228 130.69750977 -4.23413086 C138.99480013 -4.43599936 147.26965374 -4.61122482 155.56640625 -4.58984375 C156.64100491 -4.58722928 157.71560357 -4.5846148 158.82276583 -4.5819211 C186.225779 -4.40036876 210.05582986 -2.86670964 230.27910572 17.30448109 C231.77952451 18.86288262 233.25130101 20.44244729 234.7109375 22.0390625 C235.17700826 22.5448418 235.64307902 23.05062109 236.12327313 23.57172704 C249.65396652 38.47862799 258.33997973 56.23144286 258.00841713 76.64172554 C256.52075839 97.18856445 245.3270174 112.21583195 231.53515625 126.47265625 C231.00636384 127.02629396 230.47757142 127.57993167 229.93275499 128.15034628 C211.94774007 146.81179182 194.99236424 154.36940338 169.07866859 154.85994148 C156.40310405 154.96522489 143.7909684 154.44151562 131.14596385 153.60135597 C120.729538 152.92178288 110.30144581 152.66494638 99.86827469 152.37584114 C83.55067397 151.91320457 67.3129991 150.91691851 51 150 C51 183 51 216 51 250 C34.17 250 17.34 250 0 250 C0 167.5 0 85 0 0 Z M51 49 C51 65.17 51 81.34 51 98 C100.5 98 150 98 201 98 C201 81.83 201 65.66 201 49 C151.5 49 102 49 51 49 Z " fill="#A44E9E" transform="translate(4452,0)"/>
<path d="M0 0 C83.16 0 166.32 0 252 0 C252 16.17 252 32.34 252 49 C219 49 186 49 152 49 C152 98.5 152 148 152 199 C185 199 218 199 252 199 C252 215.83 252 232.66 252 250 C168.84 250 85.68 250 0 250 C0 233.17 0 216.34 0 199 C33 199 66 199 100 199 C100 149.5 100 100 100 49 C67 49 34 49 0 49 C0 32.83 0 16.66 0 0 Z " fill="#9B50A1" transform="translate(4109,0)"/>
<path d="M0 0 C83.16 0 166.32 0 252 0 C252 16.17 252 32.34 252 49 C219 49 186 49 152 49 C152 98.5 152 148 152 199 C185 199 218 199 252 199 C252 215.83 252 232.66 252 250 C168.84 250 85.68 250 0 250 C0 233.17 0 216.34 0 199 C33 199 66 199 100 199 C100 149.5 100 100 100 49 C67 49 34 49 0 49 C0 32.83 0 16.66 0 0 Z " fill="#8053A9" transform="translate(3081,0)"/>
<path d="M0 0 C83.16 0 166.32 0 252 0 C252 16.17 252 32.34 252 49 C219 49 186 49 152 49 C152 98.5 152 148 152 199 C185 199 218 199 252 199 C252 215.83 252 232.66 252 250 C168.84 250 85.68 250 0 250 C0 233.17 0 216.34 0 199 C33 199 66 199 100 199 C100 149.5 100 100 100 49 C67 49 34 49 0 49 C0 32.83 0 16.66 0 0 Z " fill="#1F4DC2" transform="translate(682,0)"/>
<path d="M0 0 C49.2834375 -1.4540625 49.2834375 -1.4540625 99.5625 -2.9375 C114.97432983 -3.57933228 114.97432983 -3.57933228 130.69750977 -4.23413086 C209.90066883 -6.2796215 209.90066883 -6.2796215 233.4614253 15.7340579 C255.21306082 37.14496278 256.26401511 67.09151839 256.58984375 95.99609375 C256.64388882 110.94408467 256.06502731 125.86807908 255.38535124 140.79782349 C254.85137648 152.7273501 254.5994645 164.65843461 254.36520946 176.59700668 C253.87876586 201.08099203 253.02015226 225.53204032 252 250 C235.17 250 218.34 250 201 250 C201 183.67 201 117.34 201 49 C151.5 49 102 49 51 49 C51 115.33 51 181.66 51 250 C34.17 250 17.34 250 0 250 C0 167.5 0 85 0 0 Z " fill="#124FC2" transform="translate(339,0)"/>
<path d="M0 0 C6.15658329 0.17773397 12.27780103 0.11368113 18.43308353 -0.08465278 C81.71034806 -2.07643118 81.71034806 -2.07643118 105.7705164 19.97338212 C116.09927445 29.77863695 126.29687533 40.99046944 133.90183353 53.04278862 C133.90183353 53.70278862 133.90183353 54.36278862 133.90183353 55.04278862 C67.57183353 55.04278862 1.24183353 55.04278862 -67.09816647 55.04278862 C-67.09816647 104.54278862 -67.09816647 154.04278862 -67.09816647 205.04278862 C-0.76816647 205.04278862 65.56183353 205.04278862 133.90183353 205.04278862 C124.24566932 224.35511706 101.61063166 250.18618597 80.71190739 257.68359673 C59.98867053 264.11884713 37.11362979 262.88208124 15.69828296 262.19859135 C9.72277822 262.0292712 3.78580784 262.10682673 -2.18752193 262.32110894 C-35.86572594 263.4939133 -68.72150952 262.98773648 -94.87438488 239.06176674 C-116.56619228 218.39072683 -123.85652957 194.76599798 -124.70446301 165.29975426 C-124.87886217 156.0509522 -124.61655302 146.82422967 -124.28500855 137.58209741 C-124.09138277 131.60624525 -124.14493397 125.6679218 -124.33547115 119.69269097 C-125.34701379 86.96512991 -125.27811358 53.71558659 -102.0819006 28.13361657 C-74.33459815 -1.17372837 -37.94103272 -1.22149306 0 0 Z " fill="#9251A4" transform="translate(3884.0981664657593,-6.042788624763489)"/>
<path d="M0 0 C16.83 0 33.66 0 51 0 C51 65.67 51 131.34 51 199 C117.33 199 183.66 199 252 199 C252 215.83 252 232.66 252 250 C168.84 250 85.68 250 0 250 C0 167.5 0 85 0 0 Z " fill="#AC4C9B" transform="translate(4794,0)"/>
<path d="M0 0 C83.16 0 166.32 0 252 0 C252 16.17 252 32.34 252 49 C219 49 186 49 152 49 C152 115.33 152 181.66 152 250 C134.84 250 117.68 250 100 250 C100 183.67 100 117.34 100 49 C67 49 34 49 0 49 C0 32.83 0 16.66 0 0 Z " fill="#4845C2" transform="translate(1710,0)"/>
<path d="M0 0 C0 82.5 0 165 0 250 C-16.83 250 -33.66 250 -51 250 C-51 200.17 -51 150.34 -51 99 C-67.5 99 -84 99 -101 99 C-99.21202951 95.42405901 -97.91997474 93.66579183 -95.17984009 90.91241455 C-93.9853701 89.70514961 -93.9853701 89.70514961 -92.76676941 88.47349548 C-91.89192398 87.59955643 -91.01707855 86.72561737 -90.11572266 85.82519531 C-89.19526657 84.898022 -88.27481049 83.97084869 -87.32646179 83.01557922 C-84.80441277 80.47587966 -82.27592443 77.94268704 -79.74567461 75.41116047 C-77.63413008 73.29771567 -75.52532253 71.18154962 -73.41637361 69.06551528 C-68.44258133 64.07544715 -63.463116 59.09108821 -58.48046875 54.10986328 C-53.33735961 48.96795727 -48.20552558 43.81498543 -43.07882082 38.65672803 C-38.67738453 34.22916913 -34.26830078 29.80932624 -29.85314405 25.3954494 C-27.21587808 22.75869399 -24.58182843 20.11890851 -21.95540237 17.47135162 C-19.02903572 14.52208463 -16.0869477 11.58901101 -13.14306641 8.65722656 C-12.27226944 7.77519058 -11.40147247 6.8931546 -10.50428772 5.98439026 C-9.70233475 5.19082626 -8.90038177 4.39726227 -8.0741272 3.57965088 C-7.37984934 2.88428349 -6.68557148 2.18891609 -5.9702549 1.47247696 C-4 0 -4 0 0 0 Z " fill="#BC4795" transform="translate(5581,0)"/>
</svg>
